<?xml version="1.0" encoding="UTF-8" standalone="no"?>
<svg
   width="128"
   height="128"
   viewBox="0 0 33.866666 33.866668"
   version="1.1"
   id="svg1434"
   inkscape:version="1.1.2 (b8e25be833, 2022-02-05)"
   sodipodi:docname="MainChar.svg"
   inkscape:export-filename="C:\Users\brick\Documents\Godot\Wog\Wog Game\Player\MainChar.png"
   inkscape:export-xdpi="96"
   inkscape:export-ydpi="96"
   xmlns:inkscape="http://www.inkscape.org/namespaces/inkscape"
   xmlns:sodipodi="http://sodipodi.sourceforge.net/DTD/sodipodi-0.dtd"
   xmlns="http://www.w3.org/2000/svg"
   xmlns:svg="http://www.w3.org/2000/svg"
   xmlns:rdf="http://www.w3.org/1999/02/22-rdf-syntax-ns#"
   xmlns:cc="http://creativecommons.org/ns#"
   xmlns:dc="http://purl.org/dc/elements/1.1/">
  <defs
     id="defs1428">
    <inkscape:path-effect
       effect="fillet_chamfer"
       id="path-effect19009"
       is_visible="true"
       lpeversion="1"
       satellites_param="F,0,0,1,0,0.79375,0,1 @ F,0,0,1,0,0.79375,0,1 @ F,0,0,1,0,0.79375,0,1 @ F,0,0,1,0,0.79375,0,1 @ F,0,0,1,0,0.79375,0,1 @ F,0,0,1,0,0.79375,0,1"
       unit="px"
       method="auto"
       mode="F"
       radius="3"
       chamfer_steps="1"
       flexible="false"
       use_knot_distance="true"
       apply_no_radius="true"
       apply_with_radius="true"
       only_selected="false"
       hide_knots="false" />
    <inkscape:path-effect
       effect="fillet_chamfer"
       id="path-effect18923"
       is_visible="true"
       lpeversion="1"
       satellites_param="F,0,0,1,0,0.79375,0,1 @ F,0,0,1,0,0.79375,0,1 @ F,0,0,1,0,0.79375,0,1 @ F,0,0,1,0,0.79375,0,1 @ F,0,0,1,0,0.79375,0,1 @ F,0,0,1,0,0.79375,0,1"
       unit="px"
       method="auto"
       mode="F"
       radius="3"
       chamfer_steps="1"
       flexible="false"
       use_knot_distance="true"
       apply_no_radius="true"
       apply_with_radius="true"
       only_selected="false"
       hide_knots="false" />
    <inkscape:path-effect
       effect="fillet_chamfer"
       id="path-effect18917"
       is_visible="true"
       lpeversion="1"
       satellites_param="F,0,0,1,0,0.79375,0,1 @ F,0,0,1,0,0.79375,0,1 @ F,0,0,1,0,0.79375,0,1 @ F,0,0,1,0,0.79375,0,1 @ F,0,0,1,0,0.79375,0,1 @ F,0,0,1,0,0.79375,0,1"
       unit="px"
       method="auto"
       mode="F"
       radius="3"
       chamfer_steps="1"
       flexible="false"
       use_knot_distance="true"
       apply_no_radius="true"
       apply_with_radius="true"
       only_selected="false"
       hide_knots="false" />
    <inkscape:path-effect
       effect="fillet_chamfer"
       id="path-effect14018"
       is_visible="true"
       lpeversion="1"
       satellites_param="F,0,0,1,0,0.79375,0,1 @ F,0,0,1,0,0.79375,0,1 @ F,0,0,1,0,10.022214,0,1 @ F,0,0,1,0,0.79375,0,1 @ F,0,0,1,0,0.79375,0,1 @ F,0,0,1,0,0.79375,0,1 @ F,0,0,1,0,0.79375,0,1 @ F,0,0,1,0,0.79375,0,1 @ F,0,0,1,0,0.79375,0,1 @ F,0,0,1,0,0.79375,0,1 @ F,0,0,1,0,0.79375,0,1 @ F,0,0,1,0,0.79375,0,1 @ F,0,0,1,0,0.79375,0,1 @ F,0,0,1,0,0.79375,0,1 @ F,0,0,1,0,0.79375,0,1 @ F,0,0,1,0,0.79375,0,1 @ F,0,0,1,0,0.79375,0,1"
       unit="px"
       method="auto"
       mode="F"
       radius="3"
       chamfer_steps="1"
       flexible="false"
       use_knot_distance="true"
       apply_no_radius="true"
       apply_with_radius="true"
       only_selected="false"
       hide_knots="false" />
    <inkscape:path-effect
       effect="fillet_chamfer"
       id="path-effect11554"
       is_visible="true"
       lpeversion="1"
       satellites_param="F,0,0,1,0,0,0,1 @ F,0,0,1,0,0.79375,0,1 @ F,0,0,1,0,0.79375,0,1 @ F,0,0,1,0,0.79375,0,1 @ F,0,0,1,0,0.79375,0,1 @ F,0,0,1,0,0.79375,0,1"
       unit="px"
       method="auto"
       mode="F"
       radius="3"
       chamfer_steps="1"
       flexible="false"
       use_knot_distance="true"
       apply_no_radius="true"
       apply_with_radius="true"
       only_selected="false"
       hide_knots="false" />
    <inkscape:path-effect
       effect="fillet_chamfer"
       id="path-effect10635"
       is_visible="true"
       lpeversion="1"
       satellites_param="F,0,0,1,0,0.79375,0,1 @ F,0,0,1,0,0.79375,0,1 @ F,0,0,1,0,0.79375,0,1 @ F,0,0,1,0,0.79375,0,1 @ F,0,0,1,0,0.79375,0,1 @ F,0,0,1,0,0.79375,0,1 @ F,0,0,1,0,0.79375,0,1 @ F,0,0,1,0,0.79375,0,1 @ F,0,0,1,0,0.79375,0,1"
       unit="px"
       method="auto"
       mode="F"
       radius="0"
       chamfer_steps="1"
       flexible="false"
       use_knot_distance="true"
       apply_no_radius="true"
       apply_with_radius="true"
       only_selected="false"
       hide_knots="false" />
    <inkscape:path-effect
       effect="fillet_chamfer"
       id="path-effect8409"
       is_visible="true"
       lpeversion="1"
       satellites_param="F,0,0,1,0,0,0,1 @ F,0,0,1,0,0.79375,0,1 @ F,0,0,1,0,0.79375,0,1 @ F,0,0,1,0,0.79375,0,1 @ F,0,0,1,0,0.79375,0,1 @ F,0,0,1,0,0.79375,0,1"
       unit="px"
       method="auto"
       mode="F"
       radius="3"
       chamfer_steps="1"
       flexible="false"
       use_knot_distance="true"
       apply_no_radius="true"
       apply_with_radius="true"
       only_selected="false"
       hide_knots="false" />
    <inkscape:path-effect
       effect="fillet_chamfer"
       id="path-effect7576"
       is_visible="true"
       lpeversion="1"
       satellites_param="F,0,0,1,0,0,0,1 @ F,0,0,1,0,0.79375,0,1 @ F,0,0,1,0,0.79375,0,1 @ F,0,0,1,0,0.79375,0,1 @ F,0,0,1,0,0.79375,0,1 @ F,0,0,1,0,0,0,1"
       unit="px"
       method="auto"
       mode="F"
       radius="3"
       chamfer_steps="1"
       flexible="false"
       use_knot_distance="true"
       apply_no_radius="true"
       apply_with_radius="true"
       only_selected="false"
       hide_knots="false" />
    <inkscape:path-effect
       effect="fillet_chamfer"
       id="path-effect5645"
       is_visible="true"
       lpeversion="1"
       satellites_param="F,0,0,1,0,0,0,1 @ F,0,0,1,0,0.79375,0,1 @ F,0,0,1,0,0.79375,0,1 @ F,0,0,1,0,0.79375,0,1 @ F,0,0,1,0,0.79375,0,1 @ F,0,0,1,0,0.79375,0,1 @ F,0,0,1,0,0.79375,0,1"
       unit="px"
       method="auto"
       mode="F"
       radius="3"
       chamfer_steps="1"
       flexible="false"
       use_knot_distance="true"
       apply_no_radius="true"
       apply_with_radius="true"
       only_selected="false"
       hide_knots="false" />
    <inkscape:path-effect
       effect="fillet_chamfer"
       id="path-effect4117"
       is_visible="true"
       lpeversion="1"
       satellites_param="F,0,0,1,0,0,0,1 @ F,0,0,1,0,0.52916667,0,1 @ F,0,0,1,0,0.52916667,0,1 @ F,0,0,1,0,0.52916667,0,1 @ F,0,0,1,0,0.52916667,0,1 @ F,0,0,1,0,0.52916667,0,1 @ F,0,0,1,0,0.52916667,0,1"
       unit="px"
       method="auto"
       mode="F"
       radius="2"
       chamfer_steps="1"
       flexible="false"
       use_knot_distance="true"
       apply_no_radius="true"
       apply_with_radius="true"
       only_selected="false"
       hide_knots="false" />
    <inkscape:path-effect
       effect="fillet_chamfer"
       id="path-effect8409-7"
       is_visible="true"
       lpeversion="1"
       satellites_param="F,0,0,1,0,0,0,1 @ F,0,0,1,0,0.79375,0,1 @ F,0,0,1,0,0.79375,0,1 @ F,0,0,1,0,0.79375,0,1 @ F,0,0,1,0,0,0,1"
       unit="px"
       method="auto"
       mode="F"
       radius="3"
       chamfer_steps="1"
       flexible="false"
       use_knot_distance="true"
       apply_no_radius="true"
       apply_with_radius="true"
       only_selected="false"
       hide_knots="false" />
  </defs>
  <sodipodi:namedview
     id="base"
     pagecolor="#ffffff"
     bordercolor="#000000"
     borderopacity="0.34509804"
     inkscape:pageopacity="0.0"
     inkscape:pageshadow="2"
     inkscape:zoom="1.4"
     inkscape:cx="-193.21429"
     inkscape:cy="84.285714"
     inkscape:document-units="mm"
     inkscape:current-layer="layer1"
     inkscape:document-rotation="0"
     showgrid="true"
     inkscape:showpageshadow="false"
     units="px"
     objecttolerance="4"
     guidetolerance="4"
     showguides="true"
     guidecolor="#931086"
     guideopacity="0.56078431"
     guidehicolor="#1e73b7"
     guidehiopacity="0.49803922"
     inkscape:pagecheckerboard="0"
     inkscape:window-width="1920"
     inkscape:window-height="1009"
     inkscape:window-x="-8"
     inkscape:window-y="-8"
     inkscape:window-maximized="1">
    <inkscape:grid
       type="xygrid"
       id="grid1997"
       color="#000000"
       opacity="0.05882353"
       empcolor="#000000"
       empopacity="0.08235294"
       empspacing="8"
       snapvisiblegridlinesonly="true"
       dotted="false" />
  </sodipodi:namedview>
  <metadata
     id="metadata1431">
    <rdf:RDF>
      <cc:Work
         rdf:about="">
        <dc:format>image/svg+xml</dc:format>
        <dc:type
           rdf:resource="http://purl.org/dc/dcmitype/StillImage" />
      </cc:Work>
    </rdf:RDF>
  </metadata>
  <g
     inkscape:label="Layer 1"
     inkscape:groupmode="layer"
     id="layer1">
    <path
       style="fill:#3a7364;fill-opacity:1;stroke:none;stroke-width:0.264583px;stroke-linecap:butt;stroke-linejoin:miter;stroke-opacity:1"
       d="m 8.4666667,15.610417 v 2.645833 a 1.9162822,1.9162822 112.5 0 1 -0.561266,1.355016 c -0.8590335,0.859034 -1.5554013,2.503079 -1.5554013,3.672098 1e-7,0.508025 1e-7,0.963644 2e-7,1.322835 l 3e-7,4.233384 A 0.79375006,0.79375006 44.999998 0 0 7.14375,29.633333 H 7.6729167 9.789583 a 0.79375,0.79375 135 0 0 0.79375,-0.79375 V 26.19375 A 0.79375,0.79375 135 0 1 11.377083,25.4 h 2.796261 a 1.2438593,1.2438593 32.543368 0 1 1.128114,0.719889 l 1.297511,2.793555 a 1.2438593,1.2438593 32.543368 0 0 1.128114,0.719889 H 18.25625 A 0.79375,0.79375 135 0 0 19.05,28.839583 V 26.19375 24.077084 A 1.9162827,1.9162827 67.500007 0 0 18.488734,22.722068 L 17.4946,21.727933 a 1.9162827,1.9162827 67.500007 0 1 -0.561266,-1.355016 l 0,-0.529167 A 1.916282,1.916282 112.5 0 1 17.4946,18.488734 l 0.994135,-0.994135 a 1.9162814,1.9162814 112.49999 0 0 0.561266,-1.355016 L 19.05,13.49375 A 0.65071948,0.65071948 39.345026 0 0 18.271664,12.855667 L 9.2450026,14.661 a 0.96821938,0.96821938 129.34503 0 0 -0.7783359,0.949417 z"
       id="path11933"
       sodipodi:nodetypes="cccccccccccccccccc"
       inkscape:path-effect="#path-effect14018"
       inkscape:original-d="M 8.4666667,14.816667 V 19.05 L 6.35,21.166667 c -3e-6,-10.655033 -3e-7,3.527778 -3e-7,4.233333 l 3e-7,4.233333 H 8.4666667 10.583333 V 25.4 h 4.383761 l 1.966239,4.233333 H 19.05 V 25.4 23.283334 L 16.933334,21.166667 V 19.05 L 19.050001,16.933333 19.05,12.7 Z" />
    <path
       style="fill:#dfbb68;fill-opacity:1;stroke:none;stroke-width:0.270859px;stroke-linecap:butt;stroke-linejoin:miter;stroke-opacity:1"
       d="M 10.583333,10.583333 H 6.9405372 a 1.9816426,1.9816426 158.17135 0 0 -1.3680138,0.54796 L 4.5027775,12.15204 a 0.75739265,0.75739265 89.999993 0 0 1e-7,1.09592 l 1.0697457,1.020746 a 1.9816433,1.9816433 21.828639 0 0 1.3680139,0.54796 h 3.6427958 v -4.233333"
       id="path7742-3"
       inkscape:path-effect="#path-effect8409-7"
       inkscape:original-d="M 10.583333,10.583333 H 6.1467872 L 3.9285137,12.7 6.1467872,14.816666 h 4.4365458 v -4.233333" />
    <path
       style="fill:#b35131;fill-opacity:1;stroke:none;stroke-width:0.264583px;stroke-linecap:butt;stroke-linejoin:miter;stroke-opacity:1"
       d="m 10.583333,10.583333 h 5.55625 a 0.79375,0.79375 45 0 1 0.79375,0.79375 v 4.7625 a 1.916282,1.916282 112.5 0 1 -0.561266,1.355016 l -0.994135,0.994135 A 1.916282,1.916282 157.5 0 1 14.022916,19.05 l -4.7624994,0 a 0.79374999,0.79374999 45 0 1 -0.79375,-0.79375 l 10e-8,-5.55625"
       id="path3405"
       sodipodi:nodetypes="cccccc"
       inkscape:path-effect="#path-effect7576"
       inkscape:original-d="m 10.583333,10.583333 h 6.35 v 6.35 c -2.116666,2.116667 0,0 -2.116667,2.116667 H 8.4666666 l 10e-8,-6.35" />
    <path
       style="fill:#eca882;fill-opacity:1;stroke:none;stroke-width:0.264583px;stroke-linecap:butt;stroke-linejoin:miter;stroke-opacity:1"
       d="m 10.583333,9.789583 0,-2.6458328 a 0.79375,0.79375 135 0 1 0.79375,-0.79375 h 2.645833 a 0.79375,0.79375 45 0 1 0.79375,0.79375 l 0,0.5291667 a 0.79375,0.79375 45 0 0 0.79375,0.79375 h 0.529167 a 0.79375,0.79375 45 0 1 0.79375,0.79375 V 9.789583 a 0.79375,0.79375 135 0 1 -0.79375,0.79375 h -0.529167 a 0.79374963,0.79374963 134.99999 0 0 -0.79375,0.79375 l 1e-6,0.529167 A 0.79374963,0.79374963 134.99999 0 1 14.022917,12.7 h -2.645834 a 0.79375,0.79375 45 0 1 -0.79375,-0.79375 v -0.529167 z"
       id="path4330"
       sodipodi:nodetypes="cccccccccc"
       inkscape:path-effect="#path-effect10635"
       inkscape:original-d="M 10.583333,10.583333 V 6.3500002 h 4.233333 v 2.1166667 h 2.116667 v 2.1166661 h -2.116667 l 1e-6,2.116667 h -4.233334 z" />
    <path
       style="fill:#dfbb68;fill-opacity:1;stroke:none;stroke-width:0.264583px;stroke-linecap:butt;stroke-linejoin:miter;stroke-opacity:1"
       d="m 16.933333,10.583333 h 3.439583 a 1.916282,1.916282 22.5 0 1 1.355016,0.561266 l 0.994135,0.994135 a 0.79374981,0.79374981 90.000007 0 1 0,1.122532 L 21.727932,14.2554 a 1.9162827,1.9162827 157.50001 0 1 -1.355016,0.561266 h -2.645833 a 0.79375,0.79375 45 0 1 -0.79375,-0.79375 v -3.439583"
       id="path7742"
       inkscape:path-effect="#path-effect11554"
       inkscape:original-d="m 16.933333,10.583333 h 4.233333 L 23.283333,12.7 21.166666,14.816666 h -4.233333 l 0,-4.233333"
       sodipodi:nodetypes="cccccc" />
    <path
       style="fill:#9c5d38;stroke:none;stroke-width:0.264583px;stroke-linecap:butt;stroke-linejoin:miter;stroke-opacity:1;fill-opacity:1"
       d="m 4.2333333,28.310416 v 0.529167 a 0.79375,0.79375 45 0 0 0.79375,0.79375 H 9.789583 a 0.79375,0.79375 135 0 0 0.79375,-0.79375 V 26.19375 A 0.79375,0.79375 45 0 0 9.789583,25.4 H 7.1437499 a 0.79375,0.79375 135 0 0 -0.79375,0.79375 v 0.529166 a 0.79375,0.79375 135 0 1 -0.79375,0.79375 l -0.5291666,0 a 0.79375,0.79375 135 0 0 -0.79375,0.79375 z"
       id="path18075"
       inkscape:path-effect="#path-effect18917"
       inkscape:original-d="m 4.2333333,27.516666 v 2.116667 H 10.583333 V 25.4 H 6.3499999 v 2.116666 z" />
    <path
       style="fill:#9c5d38;stroke:none;stroke-width:0.264583px;stroke-linecap:butt;stroke-linejoin:miter;stroke-opacity:1;fill-opacity:1"
       d="m 4.2333333,28.310416 v 0.529167 a 0.79375,0.79375 45 0 0 0.79375,0.79375 H 9.789583 a 0.79375,0.79375 135 0 0 0.79375,-0.79375 V 26.19375 A 0.79375,0.79375 45 0 0 9.789583,25.4 H 7.1437499 a 0.79375,0.79375 135 0 0 -0.79375,0.79375 v 0.529166 a 0.79375,0.79375 135 0 1 -0.79375,0.79375 l -0.5291666,0 a 0.79375,0.79375 135 0 0 -0.79375,0.79375 z"
       id="path18919"
       inkscape:path-effect="#path-effect18923"
       inkscape:original-d="m 4.2333333,27.516666 v 2.116667 H 10.583333 V 25.4 H 6.3499999 v 2.116666 z" />
    <path
       style="fill:#9c5d38;stroke:none;stroke-width:0.264583px;stroke-linecap:butt;stroke-linejoin:miter;stroke-opacity:1;fill-opacity:1"
       d="m 4.2333333,28.310416 v 0.529167 a 0.79375,0.79375 45 0 0 0.79375,0.79375 H 9.789583 a 0.79375,0.79375 135 0 0 0.79375,-0.79375 V 26.19375 A 0.79375,0.79375 45 0 0 9.789583,25.4 H 7.1437499 a 0.79375,0.79375 135 0 0 -0.79375,0.79375 v 0.529166 a 0.79375,0.79375 135 0 1 -0.79375,0.79375 l -0.5291666,0 a 0.79375,0.79375 135 0 0 -0.79375,0.79375 z"
       id="path19005"
       inkscape:path-effect="#path-effect19009"
       inkscape:original-d="m 4.2333333,27.516666 v 2.116667 H 10.583333 V 25.4 H 6.3499999 v 2.116666 z" />
    <rect
       style="fill:#9c5d38;fill-opacity:1;stroke:none;stroke-width:0.264583"
       id="rect19952"
       width="4.2333331"
       height="4.2333331"
       x="14.816667"
       y="25.4"
       ry="0.79375041"
       rx="0.79374921" />
  </g>
</svg>
